HIERARCHY
ROOT newVegas:Hips
{
	OFFSET 0.000000 96.479958 0.000000
	CHANNELS 6 Xposition Yposition Zposition Xrotation Yrotation Zrotation
	JOINT newVegas:Pelvis
	{
		OFFSET 0.000000 0.000000 0.000000
		CHANNELS 3 Xrotation Yrotation Zrotation
		JOINT newVegas:LeftUpLeg
		{
			OFFSET 18.735201 -5.666702 -4.541200
			CHANNELS 3 Xrotation Yrotation Zrotation
			JOINT newVegas:LeftLeg
			{
				OFFSET -0.021200 -31.938179 0.493100
				CHANNELS 3 Xrotation Yrotation Zrotation
				JOINT newVegas:LeftFoot
				{
					OFFSET 0.021200 -31.938179 -4.336299
					CHANNELS 3 Xrotation Yrotation Zrotation
					JOINT newVegas:LeftToeBase
					{
						OFFSET 0.943001 -26.722000 15.023500
						CHANNELS 3 Xrotation Yrotation Zrotation
						End Site
						{
							OFFSET 0.000000 30.670183 0.000000
						}
					}
				}
				JOINT newVegas:Left_PantLeg
				{
					OFFSET 0.663870 -9.044666 -1.108900
					CHANNELS 3 Xrotation Yrotation Zrotation
					End Site
					{
						OFFSET 1.415995 20.635357 0.000000
					}
				}
			}
		}
		JOINT newVegas:RightUpLeg
		{
			OFFSET -18.735201 -5.666702 -4.541200
			CHANNELS 3 Xrotation Yrotation Zrotation
			JOINT newVegas:RightLeg
			{
				OFFSET 0.018946 -31.938133 0.493100
				CHANNELS 3 Xrotation Yrotation Zrotation
				JOINT newVegas:RightFoot
				{
					OFFSET -0.018946 -31.938126 -4.336299
					CHANNELS 3 Xrotation Yrotation Zrotation
					JOINT newVegas:RightToeBase
					{
						OFFSET -0.943001 -26.722004 15.023500
						CHANNELS 3 Xrotation Yrotation Zrotation
						End Site
						{
							OFFSET 0.000000 30.670187 0.000000
						}
					}
				}
				JOINT newVegas:Right_PantLeg
				{
					OFFSET -0.661674 -9.044716 -1.108900
					CHANNELS 3 Xrotation Yrotation Zrotation
					End Site
					{
						OFFSET -1.415958 20.635269 0.000000
					}
				}
			}
		}
	}
	JOINT newVegas:Spine
	{
		OFFSET 0.000000 10.199997 -0.299500
		CHANNELS 3 Xrotation Yrotation Zrotation
		JOINT newVegas:Spine1
		{
			OFFSET 0.000000 11.900002 -1.516600
			CHANNELS 3 Xrotation Yrotation Zrotation
			JOINT newVegas:Spine2
			{
				OFFSET 0.000000 13.600006 -2.842500
				CHANNELS 3 Xrotation Yrotation Zrotation
				JOINT newVegas:Neck
				{
					OFFSET 0.000000 9.624100 -2.890100
					CHANNELS 3 Xrotation Yrotation Zrotation
					JOINT newVegas:Head
					{
						OFFSET 0.000000 14.068802 -1.351900
						CHANNELS 3 Xrotation Yrotation Zrotation
						JOINT newVegas:Hair_Back
						{
							OFFSET 0.000000 3.231903 -17.524799
							CHANNELS 3 Xrotation Yrotation Zrotation
							End Site
							{
								OFFSET 0.000000 19.849884 0.000000
							}
						}
						JOINT newVegas:Hair_Front
						{
							OFFSET 0.000000 31.260406 4.573800
							CHANNELS 3 Xrotation Yrotation Zrotation
							JOINT newVegas:Hair_Front1
							{
								OFFSET 0.000000 2.284103 11.993300
								CHANNELS 3 Xrotation Yrotation Zrotation
								JOINT newVegas:Hair_Front2
								{
									OFFSET 0.000000 2.284103 11.993300
									CHANNELS 3 Xrotation Yrotation Zrotation
									End Site
									{
										OFFSET 0.000000 12.208862 0.000000
									}
								}
							}
						}
						JOINT newVegas:Jowel
						{
							OFFSET 0.000000 -7.458206 6.864100
							CHANNELS 3 Xrotation Yrotation Zrotation
							End Site
							{
								OFFSET 0.000000 19.849884 0.000000
							}
						}
					}
				}
				JOINT newVegas:LeftShoulder
				{
					OFFSET 15.263000 10.923401 -0.547700
					CHANNELS 3 Xrotation Yrotation Zrotation
					JOINT newVegas:LeftArm
					{
						OFFSET 25.438599 -2.830597 -13.032500
						CHANNELS 3 Xrotation Yrotation Zrotation
						JOINT newVegas:LeftForeArm
						{
							OFFSET 29.960503 0.000000 0.000000
							CHANNELS 3 Xrotation Yrotation Zrotation
							JOINT newVegas:LeftHand
							{
								OFFSET 27.849251 0.000000 0.000000
								CHANNELS 3 Xrotation Yrotation Zrotation
								JOINT newVegas:LeftHandThumb1
								{
									OFFSET 4.487587 -3.305161 6.305391
									CHANNELS 3 Xrotation Yrotation Zrotation
									JOINT newVegas:LeftHandThumb2
									{
										OFFSET 5.480453 -3.164139 3.164143
										CHANNELS 3 Xrotation Yrotation Zrotation
										JOINT newVegas:LeftHandThumb3
										{
											OFFSET 5.159721 -2.978973 2.978967
											CHANNELS 3 Xrotation Yrotation Zrotation
											End Site
											{
												OFFSET 2.494507 5.926697 1.738678
											}
										}
									}
								}
								JOINT newVegas:LeftHandIndex1
								{
									OFFSET 18.578728 -0.527832 5.208049
									CHANNELS 3 Xrotation Yrotation Zrotation
									JOINT newVegas:LeftHandIndex2
									{
										OFFSET 3.192009 0.000000 0.000000
										CHANNELS 3 Xrotation Yrotation Zrotation
										JOINT newVegas:LeftHandIndex3
										{
											OFFSET 3.835129 0.000000 0.000000
											CHANNELS 3 Xrotation Yrotation Zrotation
											End Site
											{
												OFFSET -0.034599 3.816971 0.371180
											}
										}
									}
								}
								JOINT newVegas:LeftHandMiddle1
								{
									OFFSET 18.476105 0.000000 0.000000
									CHANNELS 3 Xrotation Yrotation Zrotation
									JOINT newVegas:LeftHandMiddle2
									{
										OFFSET 3.324875 0.000000 0.000000
										CHANNELS 3 Xrotation Yrotation Zrotation
										JOINT newVegas:LeftHandMiddle3
										{
											OFFSET 4.596550 0.000000 0.000000
											CHANNELS 3 Xrotation Yrotation Zrotation
											End Site
											{
												OFFSET 0.057701 4.578827 0.399218
											}
										}
									}
								}
								JOINT newVegas:LeftHandRing1
								{
									OFFSET 17.732719 0.121887 -4.201567
									CHANNELS 3 Xrotation Yrotation Zrotation
									JOINT newVegas:LeftHandRing2
									{
										OFFSET 2.733170 0.000000 0.000000
										CHANNELS 3 Xrotation Yrotation Zrotation
										JOINT newVegas:LeftHandRing3
										{
											OFFSET 3.178268 0.000000 0.000000
											CHANNELS 3 Xrotation Yrotation Zrotation
											End Site
											{
												OFFSET 0.119102 3.170624 0.185394
											}
										}
									}
								}
								JOINT newVegas:LeftHandPinky1
								{
									OFFSET 15.989624 -0.606689 -7.535461
									CHANNELS 3 Xrotation Yrotation Zrotation
									JOINT newVegas:LeftHandPinky2
									{
										OFFSET 2.538986 0.000000 0.000000
										CHANNELS 3 Xrotation Yrotation Zrotation
										JOINT newVegas:LeftHandPinky3
										{
											OFFSET 2.593102 0.000000 0.000000
											CHANNELS 3 Xrotation Yrotation Zrotation
											End Site
											{
												OFFSET -0.150902 2.584198 0.152708
											}
										}
									}
								}
							}
							JOINT newVegas:Left_Sleeve
							{
								OFFSET 0.267448 -0.649796 0.577675
								CHANNELS 3 Xrotation Yrotation Zrotation
								End Site
								{
									OFFSET 0.000000 15.991241 0.000000
								}
							}
							JOINT newVegas:Left_CapeC
							{
								OFFSET 15.715958 -8.608795 -6.935905
								CHANNELS 3 Xrotation Yrotation Zrotation
								JOINT newVegas:Left_CapeC1
								{
									OFFSET 0.000000 -8.688499 0.000000
									CHANNELS 3 Xrotation Yrotation Zrotation
									End Site
									{
										OFFSET 0.000000 8.688499 0.000000
									}
								}
							}
						}
						JOINT newVegas:Left_CapeB
						{
							OFFSET 26.118385 -8.608795 -7.079235
							CHANNELS 3 Xrotation Yrotation Zrotation
							JOINT newVegas:Left_CapeB1
							{
								OFFSET 0.000000 -8.688499 0.000000
								CHANNELS 3 Xrotation Yrotation Zrotation
								End Site
								{
									OFFSET 0.000000 8.688499 0.000000
								}
							}
						}
						JOINT newVegas:Left_CapeA
						{
							OFFSET 5.115639 -8.608795 -10.395809
							CHANNELS 3 Xrotation Yrotation Zrotation
							JOINT newVegas:Left_CapeA1
							{
								OFFSET 0.000000 -8.688499 0.000000
								CHANNELS 3 Xrotation Yrotation Zrotation
								End Site
								{
									OFFSET 0.000000 8.688499 0.000000
								}
							}
						}
					}
				}
				JOINT newVegas:RightShoulder
				{
					OFFSET -15.263000 10.923401 -0.547700
					CHANNELS 3 Xrotation Yrotation Zrotation
					JOINT newVegas:RightArm
					{
						OFFSET -25.438599 -2.830597 -13.032500
						CHANNELS 3 Xrotation Yrotation Zrotation
						JOINT newVegas:RightForeArm
						{
							OFFSET -29.960503 0.000000 0.000000
							CHANNELS 3 Xrotation Yrotation Zrotation
							JOINT newVegas:RightHand
							{
								OFFSET -27.849251 0.000000 0.000000
								CHANNELS 3 Xrotation Yrotation Zrotation
								JOINT newVegas:RightHandThumb1
								{
									OFFSET -4.487587 -3.305161 6.305391
									CHANNELS 3 Xrotation Yrotation Zrotation
									JOINT newVegas:RightHandThumb2
									{
										OFFSET -5.480453 -3.164139 3.164143
										CHANNELS 3 Xrotation Yrotation Zrotation
										JOINT newVegas:RightHandThumb3
										{
											OFFSET -5.159721 -2.978973 2.978967
											CHANNELS 3 Xrotation Yrotation Zrotation
											End Site
											{
												OFFSET -2.494507 5.926697 1.738678
											}
										}
									}
								}
								JOINT newVegas:RightHandIndex1
								{
									OFFSET -18.578728 -0.527832 5.208049
									CHANNELS 3 Xrotation Yrotation Zrotation
									JOINT newVegas:RightHandIndex2
									{
										OFFSET -3.192009 0.000000 0.000000
										CHANNELS 3 Xrotation Yrotation Zrotation
										JOINT newVegas:RightHandIndex3
										{
											OFFSET -3.835129 0.000000 0.000000
											CHANNELS 3 Xrotation Yrotation Zrotation
											End Site
											{
												OFFSET 0.034599 3.816971 0.371180
											}
										}
									}
								}
								JOINT newVegas:RightHandMiddle1
								{
									OFFSET -18.476105 0.000000 0.000000
									CHANNELS 3 Xrotation Yrotation Zrotation
									JOINT newVegas:RightHandMiddle2
									{
										OFFSET -3.324875 0.000000 0.000000
										CHANNELS 3 Xrotation Yrotation Zrotation
										JOINT newVegas:RightHandMiddle3
										{
											OFFSET -4.596550 0.000000 0.000000
											CHANNELS 3 Xrotation Yrotation Zrotation
											End Site
											{
												OFFSET -0.057701 4.578827 0.399218
											}
										}
									}
								}
								JOINT newVegas:RightHandRing1
								{
									OFFSET -17.732719 0.121887 -4.201567
									CHANNELS 3 Xrotation Yrotation Zrotation
									JOINT newVegas:RightHandRing2
									{
										OFFSET -2.733170 0.000000 0.000000
										CHANNELS 3 Xrotation Yrotation Zrotation
										JOINT newVegas:RightHandRing3
										{
											OFFSET -3.178268 0.000000 0.000000
											CHANNELS 3 Xrotation Yrotation Zrotation
											End Site
											{
												OFFSET -0.119102 3.170624 0.185394
											}
										}
									}
								}
								JOINT newVegas:RightHandPinky1
								{
									OFFSET -15.989624 -0.606689 -7.535461
									CHANNELS 3 Xrotation Yrotation Zrotation
									JOINT newVegas:RightHandPinky2
									{
										OFFSET -2.538986 0.000000 0.000000
										CHANNELS 3 Xrotation Yrotation Zrotation
										JOINT newVegas:RightHandPinky3
										{
											OFFSET -2.593102 0.000000 0.000000
											CHANNELS 3 Xrotation Yrotation Zrotation
											End Site
											{
												OFFSET 0.150902 2.584198 0.152708
											}
										}
									}
								}
							}
							JOINT newVegas:Right_CapeC
							{
								OFFSET -15.715958 -8.608795 -6.935905
								CHANNELS 3 Xrotation Yrotation Zrotation
								JOINT newVegas:Right_CapeC1
								{
									OFFSET 0.000000 -8.688499 0.000000
									CHANNELS 3 Xrotation Yrotation Zrotation
									End Site
									{
										OFFSET 0.000000 8.688499 0.000000
									}
								}
							}
							JOINT newVegas:Right_Sleeve
							{
								OFFSET -0.267448 -0.649994 0.577675
								CHANNELS 3 Xrotation Yrotation Zrotation
								End Site
								{
									OFFSET 0.000000 15.991302 0.000000
								}
							}
						}
						JOINT newVegas:Right_CapeA
						{
							OFFSET -5.115540 -8.608795 -10.395824
							CHANNELS 3 Xrotation Yrotation Zrotation
							JOINT newVegas:Right_CapeA1
							{
								OFFSET 0.000000 -8.688499 0.000000
								CHANNELS 3 Xrotation Yrotation Zrotation
								End Site
								{
									OFFSET 0.000000 8.688499 0.000000
								}
							}
						}
						JOINT newVegas:Right_CapeB
						{
							OFFSET -26.118187 -8.608795 -7.079266
							CHANNELS 3 Xrotation Yrotation Zrotation
							JOINT newVegas:Right_CapeB1
							{
								OFFSET 0.000000 -8.688499 0.000000
								CHANNELS 3 Xrotation Yrotation Zrotation
								End Site
								{
									OFFSET 0.000000 8.688499 0.000000
								}
							}
						}
					}
				}
				JOINT newVegas:Left_Collar
				{
					OFFSET 18.625099 8.655502 8.828100
					CHANNELS 3 Xrotation Yrotation Zrotation
					JOINT newVegas:Left_Collar1
					{
						OFFSET 14.783401 10.540405 -1.259500
						CHANNELS 3 Xrotation Yrotation Zrotation
						End Site
						{
							OFFSET 0.000000 18.199875 0.000000
						}
					}
				}
				JOINT newVegas:Collar_Back
				{
					OFFSET 0.000000 15.630707 -20.132601
					CHANNELS 3 Xrotation Yrotation Zrotation
					End Site
					{
						OFFSET 0.000000 22.523010 0.000000
					}
				}
				JOINT newVegas:Left_Peck
				{
					OFFSET 17.239599 -5.132599 25.482599
					CHANNELS 3 Xrotation Yrotation Zrotation
					End Site
					{
						OFFSET 0.000000 22.523010 0.000000
					}
				}
				JOINT newVegas:Right_Peck
				{
					OFFSET -17.239599 -5.132202 25.482599
					CHANNELS 3 Xrotation Yrotation Zrotation
					End Site
					{
						OFFSET 0.000000 22.523010 0.000000
					}
				}
				JOINT newVegas:Right_Collar
				{
					OFFSET -18.625099 8.655792 8.828100
					CHANNELS 3 Xrotation Yrotation Zrotation
					JOINT newVegas:Right_Collar1
					{
						OFFSET -14.783401 10.539993 -1.259500
						CHANNELS 3 Xrotation Yrotation Zrotation
						End Site
						{
							OFFSET 0.000000 18.199631 0.000000
						}
					}
				}
			}
		}
		JOINT newVegas:Belly
		{
			OFFSET 0.000000 -6.540398 9.014299
			CHANNELS 3 Xrotation Yrotation Zrotation
			End Site
			{
				OFFSET 0.000000 11.566666 0.000000
			}
		}
	}
	JOINT newVegas:ElvisFacialAnim_Joint
	{
		OFFSET 1.000000 -95.330101 -8.825800
		CHANNELS 3 Xrotation Yrotation Zrotation
		End Site
		{
			OFFSET 0.000000 35.315800 0.000000
		}
	}
}
MOTION
Frames: 4
Frame Time: 0.016667
1.164535 79.783829 -1.581861 3.696711 -55.354817 3.466661 0.000000 -0.000002 0.000000 -50.165199 -3.315496 27.290127 50.766573 -5.691078 1.230879 -2.876636 -5.973532 -21.976806 0.000000 -0.000003 0.000000 -0.000001 -0.000009 0.000003 -37.717076 -17.215733 -44.203724 56.614113 11.788356 -3.421856 -21.400811 -5.678452 25.006608 -0.000000 0.000000 0.000000 -0.000001 -0.000000 0.000001 10.411615 11.961875 -3.960329 3.762000 4.020622 -2.477471 3.818224 3.985003 -2.462743 0.113926 0.209585 1.418660 0.113937 0.209597 1.418657 0.000001 -0.000000 0.000000 0.113999 0.209609 1.418658 0.113866 0.209599 1.418660 0.000001 0.000000 0.000001 0.000001 -0.000000 0.000000 0.201639 -6.892845 -14.624147 -24.181354 -39.117713 -26.205464 -2.022154 -73.632827 -1.555853 -5.774916 23.551641 40.520524 40.109897 -15.297165 -0.360491 5.639901 28.097795 11.338772 0.000000 -0.000003 -0.000003 6.882276 2.840036 -61.140493 8.248004 7.640042 -89.897891 -0.000004 -0.000002 -0.000002 -2.345522 4.688858 -62.655224 8.754160 9.897044 -87.051253 -0.000001 0.000001 0.000003 -9.042486 10.045612 -60.766185 8.523964 9.508845 -66.892947 -0.000001 -0.000001 0.000001 -17.946860 14.755029 -51.485911 8.868376 8.667017 -84.812078 0.000000 -0.000003 0.000000 -0.000002 0.000001 0.000001 -0.000002 0.000001 0.000001 -0.000003 0.000002 0.000001 -0.000001 -0.000001 -0.000000 -0.000001 -0.000001 -0.000000 -0.000001 -0.000001 -0.000000 -0.000001 0.000000 -0.000000 3.144278 20.729238 -9.731362 -14.532865 28.739192 7.272880 -179.799279 72.546649 179.534118 -65.149520 13.409691 -51.164489 0.277443 -1.521476 -1.570535 7.169005 -41.689651 -15.773581 0.000001 0.000000 0.000001 6.412764 -12.738404 14.389477 9.941764 -7.465172 101.743263 -0.000001 0.000001 0.000001 2.653148 -11.302273 44.730899 9.916062 -9.880653 94.351161 0.000000 0.000002 0.000002 2.140161 -7.454418 61.764991 9.609213 -8.992430 89.388680 0.000001 -0.000001 0.000004 -4.886692 -23.798158 68.396107 13.518267 -7.949223 112.864969 0.000001 0.000003 0.000001 -0.000000 0.000002 0.000001 0.000000 0.000002 0.000000 -0.000000 0.000002 0.000000 0.000001 0.000001 0.000000 0.000001 0.000002 -0.000000 0.000001 0.000001 0.000000 0.000001 0.000002 -0.000001 0.000001 0.000000 0.000000 0.000001 0.000000 0.000000 0.000001 0.000000 0.000000 0.000001 0.000000 0.000000 0.000001 0.000000 0.000000 0.000001 0.000000 0.000000 0.000001 0.000000 0.000000 -0.000000 -0.000000 0.000000 0.000000 -0.000002 0.000000 
1.201513 79.898834 -1.648825 3.971545 -56.112371 3.623559 -0.000000 0.000000 -0.000000 -49.889180 -3.002555 27.790228 50.678832 -5.845019 1.222032 -3.047474 -5.522185 -22.042388 -0.000000 0.000002 -0.000000 -0.000000 0.000000 0.000001 -38.187608 -16.928836 -43.862864 56.305330 10.923239 -3.488813 -20.903077 -4.426736 25.219302 -0.000000 -0.000000 -0.000000 0.000001 0.000001 0.000001 11.022119 12.302431 -4.537551 3.882952 4.155487 -2.595620 3.940179 4.114882 -2.582872 0.026417 0.218606 1.417966 0.026403 0.218601 1.417967 -0.000001 -0.000000 0.000000 0.026408 0.218615 1.417968 0.026487 0.218612 1.417962 0.000000 -0.000001 0.000001 -0.000001 -0.000000 0.000000 0.273692 -7.175068 -13.814900 -27.151291 -40.609323 -28.235249 -1.969308 -72.750134 -1.517637 -3.652097 23.449914 41.380650 40.109893 -15.297165 -0.360491 5.639903 28.097795 11.338774 0.000002 -0.000002 -0.000003 6.882272 2.840036 -61.140493 8.248006 7.640044 -89.897891 0.000002 -0.000000 0.000001 -2.345530 4.688858 -62.655224 8.754163 9.897046 -87.051253 0.000002 0.000001 0.000001 -9.042487 10.045612 -60.766185 8.523969 9.508845 -66.892947 -0.000001 0.000001 -0.000004 -17.946863 14.755027 -51.485911 8.868377 8.667019 -84.812078 -0.000001 0.000002 -0.000000 0.000002 0.000004 0.000002 0.000002 0.000004 0.000002 0.000001 0.000004 0.000002 0.000001 0.000000 0.000001 0.000001 -0.000001 0.000001 0.000001 0.000000 0.000001 0.000001 -0.000000 0.000000 2.514159 21.233545 -6.811736 -5.943690 30.749935 2.272443 -179.151846 73.423816 179.049994 -67.159522 12.064849 -48.542636 0.277468 -1.521467 -1.570554 7.169012 -41.689709 -15.773513 0.000000 -0.000003 0.000001 6.412826 -12.738468 14.389533 9.941776 -7.465119 101.743270 0.000000 0.000002 -0.000000 2.653148 -11.302298 44.730926 9.916101 -9.880693 94.351181 0.000001 -0.000001 0.000002 2.140158 -7.454462 61.765032 9.609279 -8.992450 89.388728 -0.000000 0.000000 0.000004 -4.886704 -23.798167 68.396135 13.518224 -7.949239 112.864962 0.000001 -0.000000 -0.000000 -0.000000 0.000004 0.000001 -0.000000 0.000001 0.000002 -0.000000 0.000004 0.000000 0.000001 0.000000 -0.000000 0.000001 0.000001 -0.000000 0.000001 0.000000 -0.000000 0.000001 0.000001 -0.000000 -0.000000 0.000001 -0.000000 -0.000000 0.000001 -0.000000 -0.000000 0.000001 -0.000000 -0.000000 0.000001 -0.000000 -0.000000 0.000001 -0.000000 -0.000000 0.000001 -0.000000 -0.000000 0.000001 -0.000000 0.000000 0.000001 -0.000000 -0.000000 0.000000 -0.000000 
1.273849 80.075172 -1.722425 4.233918 -56.994107 3.750594 -0.000000 -0.000001 -0.000000 -49.474943 -2.635507 28.325418 50.467851 -5.961353 1.217595 -3.189259 -5.007140 -22.115512 0.000000 0.000000 -0.000000 0.000000 0.000003 0.000001 -38.699053 -16.714786 -43.384518 55.945632 12.177574 -3.429172 -20.318355 -5.004878 24.419519 0.000000 0.000000 -0.000000 0.000000 0.000000 -0.000002 11.608014 12.380386 -5.098261 4.041844 4.210468 -2.712402 4.093329 4.173062 -2.703598 -0.072235 0.234087 1.407162 -0.072231 0.234067 1.407168 0.000000 -0.000001 -0.000000 -0.072314 0.234100 1.407160 -0.072157 0.234058 1.407168 0.000001 -0.000002 -0.000000 0.000000 -0.000001 -0.000000 0.377112 -7.436373 -12.890572 -30.060660 -41.102098 -29.619395 -2.081432 -72.317333 -1.635703 -1.913087 23.426586 42.068156 40.109897 -15.297165 -0.360491 5.639905 28.097797 11.338776 0.000002 0.000000 -0.000003 6.882272 2.840040 -61.140493 8.248007 7.640045 -89.897891 -0.000003 -0.000000 0.000001 -2.345523 4.688858 -62.655217 8.754159 9.897042 -87.051260 0.000002 0.000000 0.000001 -9.042484 10.045613 -60.766178 8.523967 9.508851 -66.892947 -0.000001 -0.000001 0.000000 -17.946862 14.755031 -51.485911 8.868377 8.667018 -84.812078 -0.000000 -0.000003 0.000001 -0.000001 0.000000 0.000002 -0.000001 0.000000 0.000002 -0.000002 0.000001 0.000002 0.000001 -0.000003 0.000002 0.000001 -0.000003 0.000002 0.000001 -0.000003 0.000002 -0.000001 -0.000002 0.000002 2.559579 21.019400 -6.830147 -1.561708 33.072056 0.691378 -178.933840 75.268726 179.032208 -68.145945 10.673612 -45.251731 0.277472 -1.521468 -1.570508 7.168968 -41.689620 -15.773572 -0.000000 0.000000 0.000001 6.412838 -12.738427 14.389549 9.941749 -7.465179 101.743277 -0.000001 -0.000001 -0.000000 2.653178 -11.302274 44.730960 9.916063 -9.880673 94.351134 -0.000002 -0.000000 0.000001 2.140182 -7.454446 61.765039 9.609263 -8.992466 89.388701 0.000001 -0.000003 0.000003 -4.886687 -23.798153 68.396148 13.518259 -7.949254 112.864976 0.000000 -0.000004 -0.000000 -0.000001 -0.000003 -0.000001 -0.000000 0.000001 -0.000003 -0.000001 -0.000003 -0.000000 -0.000002 -0.000001 -0.000000 -0.000002 0.000000 -0.000002 -0.000002 -0.000001 -0.000000 -0.000002 -0.000000 -0.000001 0.000002 -0.000001 -0.000000 0.000002 -0.000001 -0.000000 0.000002 -0.000001 -0.000000 0.000002 -0.000001 -0.000000 0.000002 -0.000001 -0.000000 0.000002 -0.000001 -0.000000 0.000002 -0.000001 -0.000000 -0.000000 -0.000001 0.000000 -0.000000 -0.000001 -0.000000 
1.367204 80.244194 -1.816156 4.507356 -58.157128 3.878652 -0.000000 -0.000003 0.000000 -48.998947 -2.157648 29.043955 50.383587 -6.212888 1.202828 -3.454602 -4.275446 -22.194356 -0.000000 0.000003 -0.000000 0.000002 0.000003 0.000003 -39.301824 -16.284078 -42.783649 55.536292 12.330822 -3.439929 -19.573627 -4.487354 24.090356 -0.000000 -0.000000 0.000000 0.000002 0.000000 -0.000003 12.167102 12.172965 -5.624584 4.167030 4.169350 -2.813602 4.213592 4.134005 -2.809064 -0.184067 0.264491 1.386773 -0.184081 0.264517 1.386766 -0.000002 0.000001 0.000000 -0.184074 0.264512 1.386767 -0.184072 0.264490 1.386773 0.000001 -0.000000 0.000002 -0.000002 0.000001 0.000001 0.469995 -7.672755 -11.958909 -32.668344 -40.481107 -29.999318 -2.290965 -72.441963 -1.843416 -0.679272 23.671100 42.502966 40.109893 -15.297163 -0.360492 5.639905 28.097795 11.338774 0.000003 -0.000002 -0.000001 6.882274 2.840037 -61.140500 8.248002 7.640047 -89.897891 -0.000002 -0.000001 0.000001 -2.345523 4.688859 -62.655224 8.754160 9.897047 -87.051253 0.000000 0.000002 0.000001 -9.042486 10.045607 -60.766185 8.523969 9.508849 -66.892947 -0.000002 0.000001 -0.000001 -17.946857 14.755031 -51.485911 8.868371 8.667016 -84.812078 0.000001 0.000000 -0.000002 -0.000000 -0.000004 -0.000001 -0.000000 -0.000004 -0.000001 -0.000001 -0.000004 -0.000001 0.000000 -0.000001 0.000002 0.000000 -0.000001 0.000002 0.000000 -0.000001 0.000002 0.000000 -0.000000 0.000002 1.947807 20.533121 -7.026575 -2.633539 35.447500 2.378817 -179.601696 76.885466 179.927468 -68.793310 7.356066 -41.081156 0.277472 -1.521484 -1.570579 7.169020 -41.689668 -15.773538 0.000000 -0.000004 -0.000001 6.412752 -12.738414 14.389510 9.941774 -7.465194 101.743242 -0.000000 -0.000001 0.000002 2.653166 -11.302305 44.730902 9.916107 -9.880665 94.351175 0.000002 -0.000001 0.000002 2.140141 -7.454467 61.765005 9.609259 -8.992424 89.388707 0.000002 -0.000003 0.000005 -4.886725 -23.798136 68.396094 13.518227 -7.949249 112.864962 0.000001 -0.000000 0.000000 -0.000000 -0.000003 -0.000001 0.000001 -0.000001 -0.000001 -0.000000 -0.000003 -0.000002 0.000001 -0.000002 0.000001 0.000001 -0.000001 0.000001 0.000001 -0.000002 0.000001 0.000001 -0.000001 0.000001 -0.000002 -0.000001 -0.000000 -0.000002 -0.000001 -0.000000 -0.000002 -0.000001 -0.000000 -0.000002 -0.000001 -0.000000 -0.000002 -0.000001 -0.000000 -0.000002 -0.000001 -0.000000 -0.000002 -0.000001 -0.000000 0.000000 0.000001 -0.000000 -0.000000 -0.000003 0.000000 
